<?xml version="1.0" encoding="UTF-8" standalone="no" ?>
<!DOCTYPE svg PUBLIC "-//W3C//DTD SVG 1.1//EN" "http://www.w3.org/Graphics/SVG/1.1/DTD/svg11.dtd">
<svg xmlns="http://www.w3.org/2000/svg" xmlns:xlink="http://www.w3.org/1999/xlink" version="1.1" width="1080" height="1080" viewBox="0 0 1080 1080" xml:space="preserve">
<desc>Created with Fabric.js 5.2.4</desc>
<defs>
</defs>
<g transform="matrix(1 0 0 1 540 540)" id="d79e726f-3404-4438-9b3b-0765cece3fcd"  >
<rect style="stroke: none; stroke-width: 1; stroke-dasharray: none; stroke-linecap: butt; stroke-dashoffset: 0; stroke-linejoin: miter; stroke-miterlimit: 4; fill: rgb(255,255,255); fill-rule: nonzero; opacity: 1; visibility: hidden;" vector-effect="non-scaling-stroke"  x="-540" y="-540" rx="0" ry="0" width="1080" height="1080" />
</g>
<g transform="matrix(1 0 0 1 540 540)" id="5a787581-2aa2-4265-aef5-49a668ad8619"  >
</g>
<g transform="matrix(35.12 0 0 35.12 538.52 550.39)" id="6d953dd0-7ce5-4522-b2e3-e0d2bca12495"  >
<path style="stroke: rgb(29,130,211); stroke-width: 0; stroke-dasharray: none; stroke-linecap: butt; stroke-dashoffset: 0; stroke-linejoin: miter; stroke-miterlimit: 4; fill: rgb(44,55,246); fill-rule: nonzero; opacity: 1;" vector-effect="non-scaling-stroke"  transform=" translate(-16.01, -16)" d="M 18.009 18.494 C 17.827 18.494 17.653 18.631 17.488 18.91 C 17.329 19.197 17.236 19.539 17.236 19.903 C 17.236 19.933999999999997 17.237000000000002 19.965999999999998 17.238 19.997 L 17.238 19.993 Q 18.299 19.695 18.299 18.892 C 18.299 18.627 18.203 18.495 18.009 18.495 z M 21.568 18.486 Q 21.154 18.486 20.782 19.19 C 20.565 19.563000000000002 20.43 20.007 20.412 20.482000000000003 L 20.412 20.487000000000002 C 20.412 20.495 20.410999999999998 20.505000000000003 20.410999999999998 20.514000000000003 C 20.410999999999998 20.640000000000004 20.453 20.757 20.522999999999996 20.85 L 20.521999999999995 20.849 C 20.584999999999994 20.934 20.683999999999994 20.988 20.796999999999993 20.988 C 20.797999999999995 20.988 20.799999999999994 20.988 20.800999999999995 20.988 L 20.800999999999995 20.988 C 21.076999999999995 20.988 21.337999999999994 20.753 21.581999999999994 20.282 C 21.797999999999995 19.907 21.931999999999995 19.46 21.948999999999995 18.984 L 21.948999999999995 18.979000000000003 C 21.949999999999996 18.969 21.949999999999996 18.958000000000002 21.949999999999996 18.946 C 21.949999999999996 18.823 21.910999999999994 18.708000000000002 21.843999999999994 18.615000000000002 L 21.844999999999995 18.617 C 21.782999999999994 18.537000000000003 21.686999999999994 18.487000000000002 21.578999999999994 18.487000000000002 C 21.574999999999992 18.487000000000002 21.570999999999994 18.487000000000002 21.566999999999993 18.487000000000002 L 21.567999999999994 18.487000000000002 z M 15.743 16.24 C 15.643 16.24 15.493 16.494999999999997 15.298 17.003999999999998 C 15.08 17.595 14.882 18.311999999999998 14.739 19.049 L 14.724 19.14 C 15.064 18.764 15.35 18.331 15.565 17.859 L 15.578 17.828000000000003 C 15.764 17.465000000000003 15.882 17.038000000000004 15.905 16.587000000000003 L 15.905 16.580000000000002 C 15.905 16.573 15.905 16.565 15.905 16.557000000000002 C 15.905 16.476000000000003 15.888 16.400000000000002 15.857999999999999 16.330000000000002 L 15.858999999999998 16.334000000000003 Q 15.811999999999998 16.240000000000002 15.742999999999999 16.240000000000002 z M 22.053 15.468 L 22.26 15.468 L 22.26 16.775 L 22.053 16.775 z M 20.25 15.468 L 20.457 15.468 L 20.457 16.775 L 20.248 16.775 z M 19.497 15.43 C 19.5 15.43 19.503 15.43 19.507 15.43 C 19.595000000000002 15.43 19.679000000000002 15.45 19.753 15.485 L 19.75 15.482999999999999 C 19.861 15.534999999999998 19.945 15.629999999999999 19.983 15.745 L 19.984 15.748 C 19.998 15.793999999999999 20.009 15.847999999999999 20.013 15.902999999999999 L 20.013 15.905 L 19.803 15.905 C 19.797 15.822 19.761 15.748999999999999 19.706 15.694999999999999 L 19.706 15.694999999999999 C 19.653 15.647999999999998 19.583 15.62 19.506 15.62 C 19.501 15.62 19.497 15.62 19.493 15.62 L 19.494 15.62 C 19.492 15.62 19.489 15.62 19.487 15.62 C 19.416999999999998 15.62 19.351999999999997 15.643999999999998 19.299999999999997 15.683 L 19.301 15.682 C 19.244 15.728 19.2 15.789 19.177 15.859 L 19.176 15.862 C 19.148999999999997 15.94 19.133 16.03 19.133 16.124 C 19.133 16.13 19.133 16.136 19.133 16.142999999999997 L 19.133 16.141999999999996 C 19.133 16.147999999999996 19.133 16.153999999999996 19.133 16.160999999999994 C 19.133 16.249999999999993 19.148999999999997 16.335999999999995 19.179 16.414999999999996 L 19.177 16.409999999999997 C 19.203 16.478999999999996 19.247 16.535999999999998 19.302 16.577999999999996 L 19.303 16.578999999999997 C 19.355 16.616999999999997 19.421 16.638999999999996 19.492 16.638999999999996 C 19.495 16.638999999999996 19.497 16.638999999999996 19.5 16.638999999999996 L 19.5 16.638999999999996 C 19.677 16.638999999999996 19.784 16.533999999999995 19.82 16.323999999999995 L 20.029 16.323999999999995 C 20.022 16.425999999999995 19.993 16.519999999999996 19.946 16.601999999999993 L 19.948 16.598999999999993 C 19.905 16.672999999999995 19.843 16.731999999999992 19.768 16.769999999999992 L 19.766000000000002 16.770999999999994 C 19.691000000000003 16.808999999999994 19.603 16.830999999999992 19.509 16.830999999999992 C 19.504 16.830999999999992 19.5 16.830999999999992 19.496 16.830999999999992 L 19.497 16.830999999999992 C 19.493 16.830999999999992 19.488 16.830999999999992 19.483 16.830999999999992 C 19.375 16.830999999999992 19.273 16.799999999999994 19.187 16.746999999999993 L 19.189 16.747999999999994 C 19.101 16.688999999999993 19.032 16.606999999999996 18.989 16.511999999999993 L 18.988 16.507999999999992 C 18.942999999999998 16.40599999999999 18.916999999999998 16.28599999999999 18.916999999999998 16.16099999999999 C 18.916999999999998 16.15399999999999 18.916999999999998 16.14799999999999 18.916999999999998 16.14099999999999 L 18.916999999999998 16.141999999999992 C 18.916999999999998 16.13799999999999 18.916999999999998 16.13199999999999 18.916999999999998 16.126999999999992 C 18.916999999999998 16.02799999999999 18.932 15.932999999999991 18.959 15.843999999999992 L 18.957 15.850999999999992 C 18.983 15.763999999999992 19.024 15.687999999999992 19.077 15.621999999999993 L 19.076 15.622999999999992 C 19.126 15.560999999999993 19.188 15.510999999999992 19.26 15.477999999999993 L 19.263 15.476999999999993 C 19.331000000000003 15.444999999999993 19.411 15.426999999999992 19.496000000000002 15.426999999999992 C 19.498 15.426999999999992 19.500000000000004 15.426999999999992 19.502000000000002 15.426999999999992 L 19.502000000000002 15.426999999999992 z M 18.203 15.43 C 18.209 15.43 18.216 15.43 18.223 15.43 C 18.308999999999997 15.43 18.391 15.448 18.465999999999998 15.479 L 18.461999999999996 15.476999999999999 C 18.530999999999995 15.504999999999999 18.585999999999995 15.552999999999999 18.623999999999995 15.612999999999998 L 18.624999999999996 15.613999999999997 C 18.659999999999997 15.672999999999996 18.680999999999997 15.743999999999998 18.680999999999997 15.819999999999997 C 18.680999999999997 15.823999999999996 18.680999999999997 15.826999999999996 18.680999999999997 15.830999999999996 L 18.680999999999997 15.829999999999997 L 18.461 15.829999999999997 C 18.453 15.690999999999997 18.366999999999997 15.620999999999997 18.200999999999997 15.620999999999997 C 18.194999999999997 15.620999999999997 18.187999999999995 15.619999999999997 18.180999999999997 15.619999999999997 C 18.112999999999996 15.619999999999997 18.048999999999996 15.638999999999998 17.994999999999997 15.672999999999998 L 17.996999999999996 15.671999999999999 C 17.950999999999997 15.701999999999998 17.921999999999997 15.754 17.921999999999997 15.812 C 17.921999999999997 15.814 17.921999999999997 15.817 17.921999999999997 15.818999999999999 L 17.921999999999997 15.818999999999999 C 17.921999999999997 15.818999999999999 17.921999999999997 15.819999999999999 17.921999999999997 15.819999999999999 C 17.921999999999997 15.864999999999998 17.943999999999996 15.905 17.977999999999998 15.928999999999998 L 17.977999999999998 15.928999999999998 C 18.031 15.964999999999998 18.093999999999998 15.991999999999999 18.162999999999997 16.003999999999998 L 18.165999999999997 16.003999999999998 L 18.365999999999996 16.052999999999997 C 18.473999999999997 16.071999999999996 18.568999999999996 16.118999999999996 18.646999999999995 16.185 L 18.645999999999994 16.183999999999997 C 18.699999999999992 16.24 18.733999999999995 16.316 18.733999999999995 16.4 C 18.733999999999995 16.406 18.733999999999995 16.410999999999998 18.733999999999995 16.416999999999998 L 18.733999999999995 16.415999999999997 C 18.733999999999995 16.417999999999996 18.733999999999995 16.420999999999996 18.733999999999995 16.423999999999996 C 18.733999999999995 16.502999999999997 18.709999999999994 16.575999999999997 18.667999999999996 16.635999999999996 L 18.668999999999997 16.634999999999994 C 18.621999999999996 16.699999999999996 18.557 16.749999999999993 18.481999999999996 16.778999999999993 L 18.478999999999996 16.779999999999994 C 18.398999999999997 16.811999999999994 18.306999999999995 16.830999999999992 18.209999999999997 16.830999999999992 C 18.205 16.830999999999992 18.200999999999997 16.830999999999992 18.195999999999998 16.830999999999992 L 18.197 16.830999999999992 C 18.185 16.831999999999994 18.169999999999998 16.831999999999994 18.156 16.831999999999994 C 18.026 16.831999999999994 17.906 16.789999999999992 17.808999999999997 16.718999999999994 L 17.810999999999996 16.719999999999995 C 17.726999999999997 16.639999999999997 17.673999999999996 16.526999999999994 17.673999999999996 16.401999999999994 C 17.673999999999996 16.395999999999994 17.673999999999996 16.388999999999992 17.673999999999996 16.382999999999996 L 17.673999999999996 16.383999999999997 L 17.893999999999995 16.383999999999997 C 17.896999999999995 16.423 17.904999999999994 16.458 17.915999999999993 16.491999999999997 L 17.914999999999992 16.488999999999997 C 17.924999999999994 16.514999999999997 17.93999999999999 16.537999999999997 17.95799999999999 16.557 L 17.95799999999999 16.557 C 18.01899999999999 16.607999999999997 18.097999999999992 16.639 18.18499999999999 16.639 C 18.194999999999993 16.639 18.20499999999999 16.639 18.214999999999993 16.637999999999998 L 18.21399999999999 16.637999999999998 C 18.21999999999999 16.637999999999998 18.226999999999993 16.637999999999998 18.23299999999999 16.637999999999998 C 18.30799999999999 16.637999999999998 18.37699999999999 16.616999999999997 18.43699999999999 16.58 L 18.43499999999999 16.581 C 18.48599999999999 16.55 18.51899999999999 16.495 18.51899999999999 16.432 C 18.51899999999999 16.432 18.51899999999999 16.432 18.51899999999999 16.432 L 18.51899999999999 16.432 C 18.51899999999999 16.43 18.51899999999999 16.429 18.51899999999999 16.427 C 18.51899999999999 16.384 18.50099999999999 16.346 18.47199999999999 16.32 L 18.47199999999999 16.32 C 18.42899999999999 16.286 18.37599999999999 16.262 18.318999999999992 16.252 L 18.316999999999993 16.252 L 18.121999999999993 16.205 C 18.042999999999992 16.186 17.976999999999993 16.163999999999998 17.912999999999993 16.139 L 17.923999999999992 16.143 C 17.876999999999992 16.123 17.836999999999993 16.097 17.80099999999999 16.066 L 17.80099999999999 16.066 C 17.769999999999992 16.038 17.74499999999999 16.003 17.728999999999992 15.963999999999999 L 17.72799999999999 15.961999999999998 C 17.71499999999999 15.924999999999997 17.70799999999999 15.881999999999998 17.70799999999999 15.836999999999998 C 17.70799999999999 15.833999999999998 17.70799999999999 15.829999999999998 17.70799999999999 15.826999999999998 L 17.70799999999999 15.827999999999998 C 17.70799999999999 15.823999999999998 17.70799999999999 15.819999999999999 17.70799999999999 15.815999999999997 C 17.70799999999999 15.702999999999998 17.760999999999992 15.602999999999998 17.84399999999999 15.537999999999997 L 17.84499999999999 15.536999999999997 C 17.93699999999999 15.468999999999998 18.05299999999999 15.427999999999997 18.17799999999999 15.427999999999997 C 18.18799999999999 15.427999999999997 18.19799999999999 15.427999999999997 18.20899999999999 15.428999999999997 L 18.207999999999988 15.428999999999997 z M 22.654 15.108 L 22.861 15.108 L 22.861 15.468 L 23.076 15.468 L 23.076 15.637 L 22.861 15.637 L 22.861 16.533 C 22.859 16.541 22.858 16.549 22.858 16.558 C 22.858 16.611 22.901 16.654 22.954 16.654 C 22.963 16.654 22.971 16.653 22.979 16.651 L 22.977999999999998 16.651 C 22.982 16.651 22.985999999999997 16.651 22.991 16.651 C 23.021 16.651 23.05 16.646 23.078 16.637999999999998 L 23.076 16.639 L 23.076 16.814999999999998 C 23.025000000000002 16.825 22.967 16.830999999999996 22.907 16.831999999999997 L 22.906 16.831999999999997 C 22.9 16.831999999999997 22.894 16.833 22.887 16.833 C 22.824 16.833 22.765 16.813 22.718 16.778 L 22.719 16.779 C 22.679000000000002 16.744 22.654 16.694 22.654 16.637 C 22.654 16.633 22.654 16.629 22.654 16.625 L 22.654 16.626 L 22.654 15.639000000000001 L 22.478 15.639000000000001 L 22.478 15.469000000000001 L 22.654 15.469000000000001 z M 22.053 14.955 L 22.26 14.955 L 22.26 15.217 L 22.053 15.217 z M 20.784 14.955 L 20.991 14.955 L 20.991 16.036 L 21.566 15.467000000000002 L 21.81 15.467000000000002 L 21.355 15.919000000000002 L 21.89 16.774 L 21.643 16.774 L 21.197 16.055 L 20.992 16.262 L 20.992 16.774 L 20.785 16.774 z M 20.25 14.955 L 20.457 14.955 L 20.457 15.217 L 20.248 15.217 z M 4.898 14.508 C 4.846 14.505999999999998 4.786 14.504 4.725 14.504 C 3.694 14.504 2.7589999999999995 14.911999999999999 2.0709999999999997 15.576 L 2.0719999999999996 15.575000000000001 C 1.4219999999999997 16.408 1.0299999999999996 17.470000000000002 1.0299999999999996 18.624000000000002 C 1.0299999999999996 20.176000000000002 1.7399999999999995 21.562 2.8519999999999994 22.475 L 2.8609999999999993 22.482000000000003 C 3.9529999999999994 23.393000000000004 5.372 23.945000000000004 6.918999999999999 23.945000000000004 C 7.956999999999999 23.945000000000004 8.937999999999999 23.696000000000005 9.802999999999999 23.255000000000003 L 9.767 23.272000000000002 C 10.16 22.449 10.389 21.482000000000003 10.389 20.463 C 10.389 18.911 9.857999999999999 17.483 8.968 16.351 L 8.979 16.365 C 7.9399999999999995 15.283999999999999 6.505999999999999 14.588 4.911 14.508999999999999 L 4.896999999999999 14.508 z M 26.404 18.166 C 25.948 19.194 25.39 20.079 24.724 20.871000000000002 L 24.738 20.854000000000003 C 24.729 20.909000000000002 24.724 20.972 24.723 21.037000000000003 L 24.723 21.038000000000004 C 24.723 21.046000000000003 24.723 21.055000000000003 24.723 21.064000000000004 C 24.723 21.255000000000003 24.788999999999998 21.430000000000003 24.9 21.569000000000003 L 24.898999999999997 21.567000000000004 C 24.996999999999996 21.697000000000003 25.15 21.779000000000003 25.322999999999997 21.779000000000003 C 25.322999999999997 21.779000000000003 25.322999999999997 21.779000000000003 25.323999999999998 21.779000000000003 L 25.323999999999998 21.779000000000003 C 25.694 21.779000000000003 26.215999999999998 21.449000000000005 26.891 20.796000000000003 C 26.889999999999997 20.846000000000004 26.886999999999997 20.896000000000004 26.886999999999997 20.947000000000003 Q 26.886999999999997 21.221000000000004 26.932 21.779000000000003 L 27.848 21.564000000000004 C 27.848 21.314000000000004 27.852 21.118000000000002 27.86 20.972000000000005 C 27.878 20.727000000000004 27.907 20.506000000000004 27.948 20.289000000000005 L 27.942 20.326000000000004 C 27.972 20.174000000000003 28.039 20.040000000000003 28.133 19.931000000000004 L 28.131999999999998 19.932000000000006 L 28.363999999999997 19.662000000000006 C 28.516999999999996 19.484000000000005 28.670999999999996 19.322000000000006 28.833 19.169000000000008 L 28.836 19.166000000000007 C 28.897 19.110000000000007 28.962999999999997 19.057000000000006 29.032 19.008000000000006 L 29.038 19.004000000000005 C 29.081 18.973000000000006 29.134 18.953000000000007 29.19 18.947000000000006 L 29.191000000000003 18.947000000000006 C 29.26 18.947000000000006 29.295 18.991000000000007 29.295 19.079000000000008 C 29.254 19.31200000000001 29.186 19.521000000000008 29.094 19.715000000000007 L 29.1 19.700000000000006 C 28.913 20.095000000000006 28.783 20.554000000000006 28.736 21.038000000000007 L 28.735 21.055000000000007 C 28.733999999999998 21.066000000000006 28.733999999999998 21.080000000000005 28.733999999999998 21.093000000000007 C 28.733999999999998 21.277000000000008 28.798 21.44600000000001 28.906 21.578000000000007 L 28.904999999999998 21.577000000000005 C 29.008999999999997 21.696000000000005 29.160999999999998 21.771000000000004 29.33 21.771000000000004 C 29.337999999999997 21.771000000000004 29.345999999999997 21.771000000000004 29.352999999999998 21.771000000000004 L 29.351999999999997 21.771000000000004 C 30.027999999999995 21.653000000000006 30.602999999999998 21.285000000000004 30.987999999999996 20.768000000000004 L 30.992999999999995 20.761000000000003 L 30.992999999999995 20.285000000000004 Q 30.315999999999995 21.084000000000003 30.012999999999995 21.085000000000004 C 29.876999999999995 21.085000000000004 29.808999999999994 21.001000000000005 29.808999999999994 20.835000000000004 C 29.856999999999992 20.531000000000006 29.941999999999993 20.258000000000003 30.060999999999993 20.004000000000005 L 30.052999999999994 20.023000000000003 C 30.230999999999995 19.641000000000002 30.356999999999992 19.198000000000004 30.407999999999994 18.732000000000003 L 30.409999999999993 18.713000000000005 C 30.409999999999993 18.707000000000004 30.409999999999993 18.700000000000003 30.409999999999993 18.693000000000005 C 30.409999999999993 18.548000000000005 30.356999999999992 18.416000000000004 30.268999999999995 18.314000000000004 L 30.269999999999996 18.315000000000005 C 30.186999999999998 18.218000000000004 30.063999999999997 18.156000000000006 29.926999999999996 18.156000000000006 C 29.923999999999996 18.156000000000006 29.919999999999995 18.156000000000006 29.916999999999994 18.156000000000006 L 29.916999999999994 18.156000000000006 C 29.643999999999995 18.178000000000004 29.399999999999995 18.285000000000007 29.206999999999994 18.449000000000005 L 29.208999999999993 18.447000000000006 C 28.811999999999994 18.768000000000008 28.458999999999993 19.112000000000005 28.139999999999993 19.486000000000008 L 28.130999999999993 19.497000000000007 C 28.254999999999992 18.967000000000006 28.398999999999994 18.517000000000007 28.572999999999993 18.082000000000008 L 28.549999999999994 18.14700000000001 L 27.538999999999994 18.34200000000001 C 27.354999999999993 18.71800000000001 27.184999999999995 19.16400000000001 27.053999999999995 19.62700000000001 L 27.039999999999996 19.68500000000001 C 26.995999999999995 19.84800000000001 26.955999999999996 20.05100000000001 26.927999999999997 20.25800000000001 L 26.924999999999997 20.28500000000001 Q 26.631999999999998 20.580000000000013 26.313 20.847000000000012 C 26.235 20.908000000000012 26.134999999999998 20.946000000000012 26.026999999999997 20.947000000000013 L 26.026999999999997 20.947000000000013 C 26.023999999999997 20.947000000000013 26.019999999999996 20.947000000000013 26.016999999999996 20.947000000000013 C 25.932999999999996 20.947000000000013 25.857999999999997 20.907000000000014 25.809999999999995 20.845000000000013 L 25.809999999999995 20.844000000000012 C 25.759999999999994 20.77300000000001 25.728999999999996 20.685000000000013 25.728999999999996 20.59000000000001 C 25.728999999999996 20.58200000000001 25.728999999999996 20.57300000000001 25.729999999999997 20.565000000000012 L 25.729999999999997 20.566000000000013 C 25.733999999999998 20.412000000000013 25.758999999999997 20.265000000000015 25.802999999999997 20.126000000000012 L 25.799999999999997 20.13700000000001 C 25.846999999999998 19.975000000000012 25.949999999999996 19.67100000000001 26.110999999999997 19.22400000000001 L 26.496 18.16300000000001 z M 20.5 7.915 C 17.726 8.051 15.254999999999999 9.25 13.468 11.111 L 13.465 11.114 C 9.804 14.775 10.862 21.773000000000003 12.105 23.017000000000003 C 13.111 24.022000000000002 20.346 25.320000000000004 24.009 21.657000000000004 Q 24.392 21.272000000000002 24.739 20.853000000000005 C 24.857 20.327000000000005 25.069 19.864000000000004 25.358 19.459000000000007 L 25.35 19.471000000000007 C 25.156000000000002 19.572000000000006 24.93 19.649000000000008 24.693 19.689000000000007 L 24.679000000000002 19.691000000000006 C 24.439000000000004 20.099000000000007 24.159000000000002 20.450000000000006 23.836000000000002 20.758000000000006 L 23.834000000000003 20.760000000000005 C 23.544000000000004 21.048000000000005 23.234 21.317000000000004 22.907000000000004 21.563000000000006 L 22.884000000000004 21.579000000000004 C 22.732000000000003 21.691000000000003 22.544000000000004 21.761000000000003 22.340000000000003 21.769000000000005 L 22.338000000000005 21.769000000000005 Q 21.682000000000006 21.769000000000005 21.721000000000004 20.614000000000004 C 21.500000000000004 20.947000000000003 21.248000000000005 21.235000000000003 20.961000000000002 21.484000000000005 L 20.956000000000003 21.488000000000007 C 20.763 21.656000000000006 20.511000000000003 21.761000000000006 20.235000000000003 21.768000000000008 L 20.234 21.768000000000008 C 19.975 21.765000000000008 19.749000000000002 21.631000000000007 19.616000000000003 21.430000000000007 L 19.614000000000004 21.427000000000007 C 19.484000000000005 21.250000000000007 19.397000000000006 21.034000000000006 19.373000000000005 20.799000000000007 L 19.373000000000005 20.794000000000008 C 19.106000000000005 21.06500000000001 18.808000000000003 21.306000000000008 18.486000000000004 21.51000000000001 L 18.466000000000005 21.52200000000001 C 18.207000000000004 21.67700000000001 17.895000000000003 21.768000000000008 17.561000000000003 21.768000000000008 C 17.554000000000002 21.768000000000008 17.547000000000004 21.768000000000008 17.540000000000003 21.768000000000008 L 17.541000000000004 21.768000000000008 C 17.526000000000003 21.76900000000001 17.509000000000004 21.76900000000001 17.491000000000003 21.76900000000001 C 17.155000000000005 21.76900000000001 16.851000000000003 21.631000000000007 16.633000000000003 21.40800000000001 L 16.633000000000003 21.40800000000001 C 16.467000000000002 21.23400000000001 16.352000000000004 21.009000000000007 16.313000000000002 20.76000000000001 L 16.312 20.753000000000007 L 16.312 20.758000000000006 C 16.02 21.038000000000007 15.697000000000001 21.290000000000006 15.350000000000001 21.507000000000005 L 15.325000000000001 21.522000000000006 C 15.095 21.668000000000006 14.816 21.759000000000004 14.516000000000002 21.768000000000004 L 14.514000000000001 21.768000000000004 C 14.507000000000001 21.768000000000004 14.499 21.768000000000004 14.491000000000001 21.768000000000004 C 14.21 21.768000000000004 13.96 21.634000000000004 13.802000000000001 21.426000000000005 L 13.8 21.424000000000007 C 13.629000000000001 21.189000000000007 13.526 20.894000000000005 13.526 20.576000000000008 C 13.526 20.550000000000008 13.527 20.523000000000007 13.528 20.497000000000007 L 13.528 20.50100000000001 C 13.553 19.747000000000007 13.689 19.03300000000001 13.921000000000001 18.363000000000007 L 13.906 18.414000000000005 C 14.172 17.546000000000006 14.483 16.803000000000004 14.856 16.097000000000005 L 14.822 16.169000000000004 L 15.873999999999999 15.779000000000003 C 15.895999999999999 15.770000000000003 15.921999999999999 15.765000000000004 15.947999999999999 15.763000000000003 L 15.948999999999998 15.763000000000003 C 16.028 15.763000000000003 16.093999999999998 15.822000000000003 16.145 15.938000000000004 C 16.194 16.066000000000003 16.222 16.214000000000006 16.222 16.368000000000006 C 16.222 16.384000000000004 16.222 16.399000000000004 16.221 16.415000000000006 L 16.221 16.413000000000007 C 16.22 17.01000000000001 16.076 17.573000000000008 15.821 18.07100000000001 L 15.831 18.050000000000008 C 15.488999999999999 18.69600000000001 15.084 19.25200000000001 14.612 19.742000000000008 L 14.614 19.74000000000001 Q 14.58 20.17100000000001 14.58 20.332000000000008 C 14.579 20.348000000000006 14.579 20.366000000000007 14.579 20.384000000000007 C 14.579 20.575000000000006 14.629000000000001 20.75400000000001 14.716000000000001 20.909000000000006 L 14.713000000000001 20.904000000000007 C 14.782000000000002 21.03000000000001 14.914000000000001 21.115000000000006 15.065000000000001 21.115000000000006 L 15.065000000000001 21.115000000000006 C 15.245000000000001 21.108000000000004 15.409 21.048000000000005 15.545000000000002 20.951000000000004 L 15.542000000000002 20.953000000000003 C 15.821000000000002 20.750000000000004 16.067 20.535000000000004 16.293000000000003 20.301000000000002 L 16.295 20.299000000000003 C 16.335 19.747000000000003 16.556 19.253000000000004 16.899 18.870000000000005 L 16.897000000000002 18.872000000000003 C 17.209000000000003 18.455000000000002 17.694000000000003 18.182000000000002 18.243000000000002 18.161000000000005 L 18.246000000000002 18.161000000000005 C 18.259000000000004 18.160000000000004 18.275000000000002 18.160000000000004 18.290000000000003 18.160000000000004 C 18.508000000000003 18.160000000000004 18.707000000000004 18.236000000000004 18.865000000000002 18.362000000000005 L 18.863000000000003 18.361000000000004 C 19.006000000000004 18.482000000000003 19.096000000000004 18.661000000000005 19.096000000000004 18.862000000000005 C 19.096000000000004 18.869000000000007 19.096000000000004 18.876000000000005 19.096000000000004 18.883000000000006 L 19.096000000000004 18.882000000000005 Q 19.096000000000004 19.741000000000007 17.273000000000003 20.274000000000004 C 17.383000000000003 20.811000000000003 17.673000000000002 21.081000000000003 18.139000000000003 21.081000000000003 C 18.332000000000004 21.081000000000003 18.512000000000004 21.026000000000003 18.664 20.932000000000002 L 18.66 20.935000000000002 C 18.929 20.748 19.165 20.543000000000003 19.376 20.317000000000004 L 19.378 20.314000000000004 C 19.424 19.972000000000005 19.538 19.665000000000003 19.707 19.395000000000003 L 19.701 19.405000000000005 C 19.925 19.035000000000004 20.219 18.730000000000004 20.567 18.499000000000006 L 20.577 18.492000000000004 C 20.839000000000002 18.297000000000004 21.164 18.170000000000005 21.516000000000002 18.145000000000003 L 21.522000000000002 18.145000000000003 C 21.534000000000002 18.144000000000002 21.547 18.144000000000002 21.560000000000002 18.144000000000002 C 21.873 18.144000000000002 22.14 18.340000000000003 22.245 18.616000000000003 L 22.247 18.621000000000002 L 23.093 18.154000000000003 L 23.325 18.154000000000003 L 22.96 19.367000000000004 C 22.824 19.733000000000004 22.725 20.158000000000005 22.679000000000002 20.599000000000004 L 22.677000000000003 20.622000000000003 C 22.677000000000003 20.859 22.761000000000003 20.978000000000005 22.929000000000002 20.978000000000005 C 23.07 20.965000000000003 23.194000000000003 20.902000000000005 23.285000000000004 20.807000000000006 L 23.285000000000004 20.807000000000006 Q 23.480000000000004 20.635000000000005 23.831000000000003 20.282000000000007 L 23.831000000000003 20.28300000000001 C 24.002000000000002 20.09800000000001 24.163000000000004 19.896000000000008 24.309000000000005 19.684000000000008 L 24.321000000000005 19.666000000000007 C 24.118000000000006 19.602000000000007 23.971000000000004 19.41700000000001 23.965000000000003 19.198000000000008 L 23.965000000000003 19.197000000000006 C 23.975000000000005 18.942000000000007 24.055000000000003 18.708000000000006 24.186000000000003 18.511000000000006 L 24.183000000000003 18.516000000000005 C 24.296000000000003 18.299000000000007 24.519000000000002 18.154000000000007 24.776000000000003 18.154000000000007 C 24.778000000000002 18.154000000000007 24.780000000000005 18.154000000000007 24.782000000000004 18.154000000000007 L 24.782000000000004 18.154000000000007 C 24.793000000000003 18.152000000000008 24.806000000000004 18.152000000000008 24.819000000000003 18.152000000000008 C 24.978 18.152000000000008 25.108000000000004 18.28100000000001 25.108000000000004 18.44100000000001 C 25.108000000000004 18.457000000000008 25.107000000000003 18.47200000000001 25.104000000000003 18.48700000000001 L 25.104000000000003 18.48500000000001 C 25.082000000000004 18.75900000000001 25.016000000000002 19.01200000000001 24.912000000000003 19.24400000000001 L 24.918000000000003 19.22900000000001 Q 25.606 19.15400000000001 26.119000000000003 18.17700000000001 L 26.404000000000003 18.16500000000001 C 26.933000000000003 17.16400000000001 27.243000000000002 15.97600000000001 27.243000000000002 14.71700000000001 C 27.243000000000002 12.81000000000001 26.532000000000004 11.06900000000001 25.360000000000003 9.745000000000008 L 25.367000000000004 9.753000000000007 C 24.187000000000005 8.611000000000008 22.578000000000003 7.9080000000000075 20.804000000000006 7.9080000000000075 C 20.697000000000006 7.9080000000000075 20.591000000000005 7.911000000000008 20.485000000000007 7.9160000000000075 L 20.500000000000007 7.915000000000007 z" stroke-linecap="round" />
</g>
</svg>